<svg style="position: absolute; width: 0; height: 0;" width="0" height="0" version="1.1" xmlns="http://www.w3.org/2000/svg" xmlns:xlink="http://www.w3.org/1999/xlink">
    <defs>

        <symbol id="vk" viewBox="0 0 548.358 548.358">
            <title>vk</title>
            <path class="icon-new" d="M545.451,400.298c-0.664-1.431-1.283-2.618-1.858-3.569c-9.514-17.135-27.695-38.167-54.532-63.102l-0.567-0.571   l-0.284-0.28l-0.287-0.287h-0.288c-12.18-11.611-19.893-19.418-23.123-23.415c-5.91-7.614-7.234-15.321-4.004-23.13   c2.282-5.9,10.854-18.36,25.696-37.397c7.807-10.089,13.99-18.175,18.556-24.267c32.931-43.78,47.208-71.756,42.828-83.939   l-1.701-2.847c-1.143-1.714-4.093-3.282-8.846-4.712c-4.764-1.427-10.853-1.663-18.278-0.712l-82.224,0.568   c-1.332-0.472-3.234-0.428-5.712,0.144c-2.475,0.572-3.713,0.859-3.713,0.859l-1.431,0.715l-1.136,0.859   c-0.952,0.568-1.999,1.567-3.142,2.995c-1.137,1.423-2.088,3.093-2.848,4.996c-8.952,23.031-19.13,44.444-30.553,64.238   c-7.043,11.803-13.511,22.032-19.418,30.693c-5.899,8.658-10.848,15.037-14.842,19.126c-4,4.093-7.61,7.372-10.852,9.849   c-3.237,2.478-5.708,3.525-7.419,3.142c-1.715-0.383-3.33-0.763-4.859-1.143c-2.663-1.714-4.805-4.045-6.42-6.995   c-1.622-2.95-2.714-6.663-3.285-11.136c-0.568-4.476-0.904-8.326-1-11.563c-0.089-3.233-0.048-7.806,0.145-13.706   c0.198-5.903,0.287-9.897,0.287-11.991c0-7.234,0.141-15.085,0.424-23.555c0.288-8.47,0.521-15.181,0.716-20.125   c0.194-4.949,0.284-10.185,0.284-15.705s-0.336-9.849-1-12.991c-0.656-3.138-1.663-6.184-2.99-9.137   c-1.335-2.95-3.289-5.232-5.853-6.852c-2.569-1.618-5.763-2.902-9.564-3.856c-10.089-2.283-22.936-3.518-38.547-3.71   c-35.401-0.38-58.148,1.906-68.236,6.855c-3.997,2.091-7.614,4.948-10.848,8.562c-3.427,4.189-3.905,6.475-1.431,6.851   c11.422,1.711,19.508,5.804,24.267,12.275l1.715,3.429c1.334,2.474,2.666,6.854,3.999,13.134c1.331,6.28,2.19,13.227,2.568,20.837   c0.95,13.897,0.95,25.793,0,35.689c-0.953,9.9-1.853,17.607-2.712,23.127c-0.859,5.52-2.143,9.993-3.855,13.418   c-1.715,3.426-2.856,5.52-3.428,6.28c-0.571,0.76-1.047,1.239-1.425,1.427c-2.474,0.948-5.047,1.431-7.71,1.431   c-2.667,0-5.901-1.334-9.707-4c-3.805-2.666-7.754-6.328-11.847-10.992c-4.093-4.665-8.709-11.184-13.85-19.558   c-5.137-8.374-10.467-18.271-15.987-29.691l-4.567-8.282c-2.855-5.328-6.755-13.086-11.704-23.267   c-4.952-10.185-9.329-20.037-13.134-29.554c-1.521-3.997-3.806-7.04-6.851-9.134l-1.429-0.859c-0.95-0.76-2.475-1.567-4.567-2.427   c-2.095-0.859-4.281-1.475-6.567-1.854l-78.229,0.568c-7.994,0-13.418,1.811-16.274,5.428l-1.143,1.711   C0.288,140.146,0,141.668,0,143.763c0,2.094,0.571,4.664,1.714,7.707c11.42,26.84,23.839,52.725,37.257,77.659   c13.418,24.934,25.078,45.019,34.973,60.237c9.897,15.229,19.985,29.602,30.264,43.112c10.279,13.515,17.083,22.176,20.412,25.981   c3.333,3.812,5.951,6.662,7.854,8.565l7.139,6.851c4.568,4.569,11.276,10.041,20.127,16.416   c8.853,6.379,18.654,12.659,29.408,18.85c10.756,6.181,23.269,11.225,37.546,15.126c14.275,3.905,28.169,5.472,41.684,4.716h32.834   c6.659-0.575,11.704-2.669,15.133-6.283l1.136-1.431c0.764-1.136,1.479-2.901,2.139-5.276c0.668-2.379,1-5,1-7.851   c-0.195-8.183,0.428-15.558,1.852-22.124c1.423-6.564,3.045-11.513,4.859-14.846c1.813-3.33,3.859-6.14,6.136-8.418   c2.282-2.283,3.908-3.666,4.862-4.142c0.948-0.479,1.705-0.804,2.276-0.999c4.568-1.522,9.944-0.048,16.136,4.429   c6.187,4.473,11.99,9.996,17.418,16.56c5.425,6.57,11.943,13.941,19.555,22.124c7.617,8.186,14.277,14.271,19.985,18.274   l5.708,3.426c3.812,2.286,8.761,4.38,14.853,6.283c6.081,1.902,11.409,2.378,15.984,1.427l73.087-1.14   c7.229,0,12.854-1.197,16.844-3.572c3.998-2.379,6.373-5,7.139-7.851c0.764-2.854,0.805-6.092,0.145-9.712   C546.782,404.25,546.115,401.725,545.451,400.298z"/>
        </symbol>

        <symbol id="fb" viewBox="0 0 96.227 96.227">
            <title>fb</title>
            <path d="M73.099,15.973l-9.058,0.004c-7.102,0-8.477,3.375-8.477,8.328v10.921h16.938l-0.006,17.106H55.564v43.895H37.897V52.332   h-14.77V35.226h14.77V22.612C37.897,7.972,46.84,0,59.9,0L73.1,0.021L73.099,15.973L73.099,15.973z"/>
        </symbol>

        <symbol id="instagram" viewBox="0 0 97.395 97.395">
            <title>instagram</title>
            <path d="M12.501,0h72.393c6.875,0,12.5,5.09,12.5,12.5v72.395c0,7.41-5.625,12.5-12.5,12.5H12.501C5.624,97.395,0,92.305,0,84.895   V12.5C0,5.09,5.624,0,12.501,0L12.501,0z M70.948,10.821c-2.412,0-4.383,1.972-4.383,4.385v10.495c0,2.412,1.971,4.385,4.383,4.385   h11.008c2.412,0,4.385-1.973,4.385-4.385V15.206c0-2.413-1.973-4.385-4.385-4.385H70.948L70.948,10.821z M86.387,41.188h-8.572   c0.811,2.648,1.25,5.453,1.25,8.355c0,16.2-13.556,29.332-30.275,29.332c-16.718,0-30.272-13.132-30.272-29.332   c0-2.904,0.438-5.708,1.25-8.355h-8.945v41.141c0,2.129,1.742,3.872,3.872,3.872h67.822c2.13,0,3.872-1.742,3.872-3.872V41.188   H86.387z M48.789,29.533c-10.802,0-19.56,8.485-19.56,18.953c0,10.468,8.758,18.953,19.56,18.953   c10.803,0,19.562-8.485,19.562-18.953C68.351,38.018,59.593,29.533,48.789,29.533z"/>
        </symbol>

        <symbol id="you-toube" viewBox="0 0 90.677 90.677">
            <title>you-toube</title>
            <path d="M82.287,45.907c-0.937-4.071-4.267-7.074-8.275-7.521c-9.489-1.06-19.098-1.065-28.66-1.06    c-9.566-0.005-19.173,0-28.665,1.06c-4.006,0.448-7.334,3.451-8.27,7.521c-1.334,5.797-1.35,12.125-1.35,18.094    c0,5.969,0,12.296,1.334,18.093c0.936,4.07,4.264,7.073,8.272,7.521c9.49,1.061,19.097,1.065,28.662,1.061    c9.566,0.005,19.171,0,28.664-1.061c4.006-0.448,7.336-3.451,8.272-7.521c1.333-5.797,1.34-12.124,1.34-18.093    C83.61,58.031,83.62,51.704,82.287,45.907z M28.9,50.4h-5.54v29.438h-5.146V50.4h-5.439v-4.822H28.9V50.4z M42.877,79.839h-4.629    v-2.785c-1.839,2.108-3.585,3.136-5.286,3.136c-1.491,0-2.517-0.604-2.98-1.897c-0.252-0.772-0.408-1.994-0.408-3.796V54.311    h4.625v18.795c0,1.084,0,1.647,0.042,1.799c0.111,0.718,0.462,1.082,1.082,1.082c0.928,0,1.898-0.715,2.924-2.166v-19.51h4.629    L42.877,79.839L42.877,79.839z M60.45,72.177c0,2.361-0.159,4.062-0.468,5.144c-0.618,1.899-1.855,2.869-3.695,2.869    c-1.646,0-3.234-0.914-4.781-2.824v2.474h-4.625V45.578h4.625v11.189c1.494-1.839,3.08-2.769,4.781-2.769    c1.84,0,3.078,0.969,3.695,2.88c0.311,1.027,0.468,2.715,0.468,5.132V72.177z M77.907,67.918h-9.251v4.525    c0,2.363,0.773,3.543,2.363,3.543c1.139,0,1.802-0.619,2.066-1.855c0.043-0.251,0.104-1.279,0.104-3.134h4.719v0.675    c0,1.491-0.057,2.518-0.099,2.98c-0.155,1.024-0.519,1.953-1.08,2.771c-1.281,1.854-3.179,2.768-5.595,2.768    c-2.42,0-4.262-0.871-5.599-2.614c-0.981-1.278-1.485-3.29-1.485-6.003v-8.941c0-2.729,0.447-4.725,1.43-6.015    c1.336-1.747,3.177-2.617,5.54-2.617c2.321,0,4.161,0.87,5.457,2.617c0.969,1.29,1.432,3.286,1.432,6.015v5.285H77.907z"/>
            <path d="M70.978,58.163c-1.546,0-2.321,1.181-2.321,3.541v2.362h4.625v-2.362C73.281,59.344,72.508,58.163,70.978,58.163z"/>
            <path d="M53.812,58.163c-0.762,0-1.534,0.36-2.307,1.125v15.559c0.772,0.774,1.545,1.14,2.307,1.14    c1.334,0,2.012-1.14,2.012-3.445V61.646C55.824,59.344,55.146,58.163,53.812,58.163z" />
            <path d="M56.396,34.973c1.705,0,3.479-1.036,5.34-3.168v2.814h4.675V8.82h-4.675v19.718c-1.036,1.464-2.018,2.188-2.953,2.188    c-0.626,0-0.994-0.37-1.096-1.095c-0.057-0.153-0.057-0.722-0.057-1.817V8.82h-4.66v20.4c0,1.822,0.156,3.055,0.414,3.836    C53.854,34.363,54.891,34.973,56.396,34.973z"/>
            <path d="M23.851,20.598v14.021h5.184V20.598L35.271,0h-5.242l-3.537,13.595L22.812,0h-5.455c1.093,3.209,2.23,6.434,3.323,9.646    C22.343,14.474,23.381,18.114,23.851,20.598z" />
            <path d="M42.219,34.973c2.342,0,4.162-0.881,5.453-2.641c0.981-1.291,1.451-3.325,1.451-6.067v-9.034    c0-2.758-0.469-4.774-1.451-6.077c-1.291-1.765-3.11-2.646-5.453-2.646c-2.33,0-4.149,0.881-5.443,2.646    c-0.993,1.303-1.463,3.319-1.463,6.077v9.034c0,2.742,0.47,4.776,1.463,6.067C38.069,34.092,39.889,34.973,42.219,34.973z     M39.988,16.294c0-2.387,0.724-3.577,2.231-3.577c1.507,0,2.229,1.189,2.229,3.577v10.852c0,2.387-0.722,3.581-2.229,3.581    c-1.507,0-2.231-1.194-2.231-3.581V16.294z"/>
        </symbol>

        <symbol id="mail" viewBox="0 0 550.795 550.795">
            <path d="M501.613,491.782c12.381,0,23.109-4.088,32.229-12.16L377.793,323.567c-3.744,2.681-7.373,5.288-10.801,7.767
			c-11.678,8.604-21.156,15.318-28.434,20.129c-7.277,4.822-16.959,9.737-29.045,14.755c-12.094,5.024-23.361,7.528-33.813,7.528
			h-0.306h-0.306c-10.453,0-21.72-2.503-33.813-7.528c-12.093-5.018-21.775-9.933-29.045-14.755
			c-7.277-4.811-16.75-11.524-28.434-20.129c-3.256-2.387-6.867-5.006-10.771-7.809L16.946,479.622
			c9.119,8.072,19.854,12.16,32.234,12.16H501.613z"/>
            <path d="M31.047,225.299C19.37,217.514,9.015,208.598,0,198.555V435.98l137.541-137.541
			C110.025,279.229,74.572,254.877,31.047,225.299z"/>
            <path d="M520.059,225.299c-41.865,28.336-77.447,52.73-106.75,73.195l137.486,137.492V198.555
			C541.98,208.396,531.736,217.306,520.059,225.299z"/>
            <path d="M501.613,59.013H49.181c-15.784,0-27.919,5.33-36.42,15.979C4.253,85.646,0.006,98.97,0.006,114.949
			c0,12.907,5.636,26.892,16.903,41.959c11.267,15.061,23.256,26.891,35.961,35.496c6.965,4.921,27.969,19.523,63.012,43.801
			c18.917,13.109,35.368,24.535,49.505,34.395c12.05,8.396,22.442,15.667,31.022,21.701c0.985,0.691,2.534,1.799,4.59,3.269
			c2.215,1.591,5.018,3.61,8.476,6.107c6.659,4.816,12.191,8.709,16.597,11.683c4.4,2.975,9.731,6.298,15.985,9.988
			c6.249,3.685,12.143,6.456,17.675,8.299c5.533,1.842,10.655,2.766,15.367,2.766h0.306h0.306c4.711,0,9.834-0.924,15.368-2.766
			c5.531-1.843,11.42-4.608,17.674-8.299c6.248-3.69,11.572-7.02,15.986-9.988c4.406-2.974,9.938-6.866,16.598-11.683
			c3.451-2.497,6.254-4.517,8.469-6.102c2.057-1.476,3.605-2.577,4.596-3.274c6.684-4.651,17.1-11.892,31.104-21.616
			c25.482-17.705,63.01-43.764,112.742-78.281c14.957-10.447,27.453-23.054,37.496-37.803c10.025-14.749,15.051-30.22,15.051-46.408
			c0-13.525-4.873-25.098-14.598-34.737C526.461,63.829,514.932,59.013,501.613,59.013z"/>

        </symbol>


        <symbol id="phone" viewBox="0 0 348.077 348.077">
            <path d="M340.273,275.083l-53.755-53.761c-10.707-10.664-28.438-10.34-39.518,0.744l-27.082,27.076
				c-1.711-0.943-3.482-1.928-5.344-2.973c-17.102-9.476-40.509-22.464-65.14-47.113c-24.704-24.701-37.704-48.144-47.209-65.257
				c-1.003-1.813-1.964-3.561-2.913-5.221l18.176-18.149l8.936-8.947c11.097-11.1,11.403-28.826,0.721-39.521L73.39,8.194
				C62.708-2.486,44.969-2.162,33.872,8.938l-15.15,15.237l0.414,0.411c-5.08,6.482-9.325,13.958-12.484,22.02
				C3.74,54.28,1.927,61.603,1.098,68.941C-6,127.785,20.89,181.564,93.866,254.541c100.875,100.868,182.167,93.248,185.674,92.876
				c7.638-0.913,14.958-2.738,22.397-5.627c7.992-3.122,15.463-7.361,21.941-12.43l0.331,0.294l15.348-15.029
				C350.631,303.527,350.95,285.795,340.273,275.083z"/>

        </symbol>


        <symbol id="clock" viewBox="0 0 299.995 299.995">
            <path d="M149.995,0C67.156,0,0,67.158,0,149.995s67.156,150,149.995,150s150-67.163,150-150S232.834,0,149.995,0z
			 M214.842,178.524H151.25c-0.215,0-0.415-0.052-0.628-0.06c-0.213,0.01-0.412,0.06-0.628,0.06
			c-5.729,0-10.374-4.645-10.374-10.374V62.249c0-5.729,4.645-10.374,10.374-10.374s10.374,4.645,10.374,10.374v95.527h54.47
			c5.729,0,10.374,4.645,10.374,10.374C225.212,173.879,220.571,178.524,214.842,178.524z"/>

        </symbol>

        <symbol id="location" viewBox="0 0 430.114 430.114">
            <path id="Facebook_Places" d="M356.208,107.051c-1.531-5.738-4.64-11.852-6.94-17.205C321.746,23.704,261.611,0,213.055,0
		C148.054,0,76.463,43.586,66.905,133.427v18.355c0,0.766,0.264,7.647,0.639,11.089c5.358,42.816,39.143,88.32,64.375,131.136
		c27.146,45.873,55.314,90.999,83.221,136.106c17.208-29.436,34.354-59.259,51.17-87.933c4.583-8.415,9.903-16.825,14.491-24.857
		c3.058-5.348,8.9-10.696,11.569-15.672c27.145-49.699,70.838-99.782,70.838-149.104v-20.262
		C363.209,126.938,356.581,108.204,356.208,107.051z M214.245,199.193c-19.107,0-40.021-9.554-50.344-35.939
		c-1.538-4.2-1.414-12.617-1.414-13.388v-11.852c0-33.636,28.56-48.932,53.406-48.932c30.588,0,54.245,24.472,54.245,55.06
		C270.138,174.729,244.833,199.193,214.245,199.193z"/>
        </symbol>


        <symbol id="price" viewBox="0 0 424.98 424.98">
            <title>price</title>
                <path d="M241.395,282.304c-1.587-1.738-3.595-3.038-5.67-4.121c-4.518-2.356-9.459-3.785-14.365-5.075v38.016
				c7.963-0.9,17.105-3.79,21.286-11.224l0,0c1.996-3.551,2.393-7.914,1.58-11.867C243.785,285.891,242.874,283.925,241.395,282.304
				z"/>
                <path d="M242.604,299.973c0.016-0.027,0.025-0.044,0.042-0.073l0,0C242.632,299.924,242.618,299.948,242.604,299.973z"/>
                <path d="M184.009,221.532c-1.369,1.999-2.228,4.27-2.465,6.684c-0.237,2.419-0.104,5.11,0.815,7.387
				c0.875,2.17,2.708,3.772,4.6,5.062c2.123,1.444,4.458,2.572,6.836,3.528c1.995,0.803,4.239,1.571,6.658,2.313v-34.4
				C194.342,213.41,187.665,216.194,184.009,221.532z"/>
                <path d="M242.804,299.619c-0.05,0.089-0.104,0.182-0.157,0.28l0,0C242.709,299.785,242.758,299.701,242.804,299.619z"/>
                <path d="M243.004,299.263C243.017,299.239,243.019,299.237,243.004,299.263L243.004,299.263z"/>
                <path d="M234.753,92.469c32.329-27.158,53.931-88.341,40.637-91.017c-17.664-3.557-56.022,12.04-74.562,14.788
				c-26.296,3.175-54.936-28.515-71.012-10.851c-13.071,14.362,9.371,66.592,44.482,89.346
				C69.546,146.219-77.69,404.673,179.171,423.426C534.582,449.375,356.615,142.639,234.753,92.469z M265.276,296.298
				c-1.093,10.076-6.433,19.188-14.415,25.374c-8.428,6.532-18.999,9.57-29.502,10.421v11.133c0,2.979-1.301,5.86-3.531,7.832
				c-3.065,2.712-7.569,3.381-11.289,1.667c-3.673-1.69-6.086-5.457-6.086-9.499v-12.168c-1.801-0.342-3.589-0.749-5.356-1.234
				c-9.816-2.697-18.921-7.954-25.572-15.732c-3.313-3.877-6.014-8.276-7.882-13.025c-0.488-1.241-0.923-2.505-1.304-3.783
				c-0.345-1.157-0.701-2.333-0.824-3.539c-0.207-2.023,0.194-4.087,1.137-5.889c1.938-3.707,6.022-5.946,10.192-5.574
				c4.104,0.364,7.701,3.212,8.993,7.124c0.398,1.205,0.668,2.44,1.115,3.632c0.443,1.184,0.978,2.335,1.607,3.431
				c1.242,2.158,2.798,4.148,4.59,5.875c3.694,3.559,8.399,5.872,13.304,7.248v-41.362c-9.591-2.483-19.491-5.69-27.411-11.848
				c-3.849-2.994-7.115-6.714-9.254-11.117c-2.257-4.647-3.192-9.824-3.23-14.966c-0.039-5.221,0.953-10.396,3.131-15.153
				c2.04-4.454,4.977-8.453,8.578-11.768c7.7-7.087,17.928-11.04,28.187-12.492v-0.91v-10.647c0-2.978,1.301-5.86,3.531-7.832
				c3.066-2.711,7.568-3.381,11.289-1.667c3.672,1.691,6.086,5.457,6.086,9.499v10.647v0.847c1.367,0.172,2.73,0.378,4.086,0.624
				c10.074,1.823,19.927,5.983,27.294,13.246c3.49,3.44,6.347,7.539,8.356,12.009c0.561,1.247,1.052,2.523,1.477,3.824
				c0.396,1.213,0.794,2.462,0.983,3.728c0.302,2.021-0.006,4.109-0.871,5.958c-1.772,3.788-5.746,6.2-9.927,6.021
				c-4.108-0.179-7.83-2.854-9.301-6.694c-0.438-1.142-0.657-2.351-1.104-3.49c-0.451-1.153-1.035-2.253-1.708-3.292
				c-1.308-2.02-3.003-3.752-4.938-5.179c-4.19-3.094-9.272-4.706-14.35-5.607v39.582c6.035,1.445,12.075,3.021,17.857,5.301
				c8.739,3.446,17.02,8.73,21.79,17.062c-0.74-1.298-1.46-2.563,0.025,0.043c1.458,2.56,0.762,1.34,0.03,0.057
				C264.854,280.704,266.101,288.701,265.276,296.298z"/>
                <path d="M242.493,300.169c-0.061,0.109-0.114,0.205-0.156,0.278C242.373,300.384,242.427,300.289,242.493,300.169z"/>
        </symbol>

        <symbol id="menu" viewBox="0 0 24 24">
            <title>clock</title>
            <path d="M24,3c0-0.6-0.4-1-1-1H1C0.4,2,0,2.4,0,3v2c0,0.6,0.4,1,1,1h22c0.6,0,1-0.4,1-1V3z"/>
            <path d="M24,11c0-0.6-0.4-1-1-1H1c-0.6,0-1,0.4-1,1v2c0,0.6,0.4,1,1,1h22c0.6,0,1-0.4,1-1V11z"/>
            <path d="M24,19c0-0.6-0.4-1-1-1H1c-0.6,0-1,0.4-1,1v2c0,0.6,0.4,1,1,1h22c0.6,0,1-0.4,1-1V19z"/>
        </symbol>



    </defs>
</svg>